<?xml version="1.0" encoding="utf-8"?>
<!-- Generator: Adobe Illustrator 20.1.0, SVG Export Plug-In . SVG Version: 6.00 Build 0)  -->
<svg version="1.1" id="Layer_1" xmlns="http://www.w3.org/2000/svg" xmlns:xlink="http://www.w3.org/1999/xlink" x="0px" y="0px"
	 viewBox="0 0 1400 980" style="enable-background:new 0 0 1400 980;" xml:space="preserve">
<style type="text/css">
	.st0{fill:#14142C;}
	.st1{display:none;}
	.st2{display:inline;}
	.st3{fill:#FFFFFF;}
	.st4{display:inline;fill:#4EBFDE;}
	.st5{display:inline;fill:#3AAB51;}
	.st6{fill:#E5E5E5;}
	.st7{fill:#DB7E0C;}
	.st8{fill:#F18906;}
	.st9{fill:#5C5C5B;}
	.st10{fill:#1C1935;}
	.st11{fill:#FBBF49;}
	.st12{display:none;opacity:0.2;}
	.st13{fill:#626C71;}
	.st14{display:inline;fill:#FFFFFF;}
	.st15{display:inline;fill:#DB7E0C;}
	.st16{display:inline;fill:#F18906;}
	.st17{display:inline;fill:#E56A75;}
	.st18{fill:#CE5F6A;}
	.st19{display:inline;fill:#69C4D9;}
	.st20{fill:#38B1CC;}
	.st21{display:inline;fill:#DAE7C3;}
	.st22{fill:#B2B3AD;}
	.st23{display:inline;fill:#FBBF49;}
	.st24{fill:#D18B2B;}
	.st25{display:inline;fill:#F3A400;}
	.st26{fill:none;}
	.st27{fill:#E2EDD9;}
	.st28{fill:#F4A246;}
	.st29{fill:#CDD3C4;}
	.st30{display:inline;fill:#FFE930;}
	.st31{opacity:0.3;}
	.st32{fill:#9FA0CF;}
</style>
<rect y="0" class="st0" width="1400" height="980"/>
<g class="st1">
	<g class="st2">
		<path class="st3" d="M974,389.9c2.6-4.5,4-9.7,3.9-15.2c-0.3-16-13.3-28.7-29-28.4c-3.2,0.1-6.2,0.7-9,1.7c0-0.4,0-0.7,0-1
			c-2.1-23.2-22.2-40.2-45-38.1c-19.4,1.8-34.4,17-37.1,35.8c-4.8-12.2-16.9-20.2-30.4-19c-14.3,1.3-25.3,12.8-26.8,26.9
			c-13,1.4-23,12.6-22.7,26.2c0.1,4,1,7.7,2.7,11.1H974z"/>
	</g>
</g>
<g class="st1">
	<g class="st2">
		<path class="st3" d="M924.5,703c1.7-2.9,2.6-6.4,2.6-10.1c-0.2-10.6-8.8-19-19.2-18.8c-2.1,0-4.1,0.5-6,1.2c0-0.2,0-0.5,0-0.7
			c-1.4-15.4-14.7-26.7-29.8-25.2c-12.8,1.2-22.8,11.3-24.6,23.7c-3.2-8.1-11.2-13.4-20.1-12.6c-9.5,0.9-16.8,8.5-17.8,17.8
			c-8.6,0.9-15.3,8.4-15.1,17.3c0.1,2.6,0.7,5.1,1.8,7.3L924.5,703L924.5,703z"/>
	</g>
</g>
<g class="st1">
	<g class="st2">
		<path class="st3" d="M575.5,629.1c2.6-4.5,4-9.7,3.9-15.2c-0.3-16-13.3-28.7-29-28.4c-3.2,0.1-6.2,0.7-9,1.7c0-0.4,0-0.7,0-1
			c-2.1-23.2-22.2-40.2-45-38.1c-19.4,1.8-34.4,17-37.1,35.8c-4.8-12.2-16.9-20.2-30.4-19c-14.3,1.3-25.3,12.8-26.8,26.9
			c-13,1.4-23,12.6-22.7,26.2c0.1,4,1,7.7,2.7,11.1H575.5z"/>
	</g>
</g>
<g class="st1">
	<ellipse class="st4" cx="393.5" cy="232.9" rx="116.3" ry="116.9"/>
</g>
<g class="st1">
	<path class="st5" d="M292.9,174.1c0,0-5,31.1,5.4,30.8s19.4,0.2,19.4,0.2v28.4l6,33l8,20.1l18.9,25.9l11.9-46l18.9-14.7l12.1-25.7
		l-26.6-21.2h-24.3l-15.9-22.8l8.9-19.5l19.4-7.5l7-27.3l6-10.2c0,0-35.8,13.9-46.1,23.1C311.4,150,297.2,166,292.9,174.1z"/>
</g>
<g class="st1">
	<path class="st5" d="M448.4,129.9l-3.8,9.4l12.2,33.6h21.9H493L477.7,200l-26.8-4.2l-13.9,9.1l-5,14.9v18l19.9,9l25.6,0.8l-15,18.9
		l-17.6,26.7l10.9,25.4l14.7,1.1c0,0,30.7-19,38.9-72C517.5,194.8,485.7,147.9,448.4,129.9z"/>
</g>
<g class="st1">
	<g class="st2">
		<path class="st3" d="M751.7,583.6c0,5.8-4.7,10.6-10.5,10.6l-95.2,0.2c-5.8,0-10.5-4.7-10.5-10.5l0,0c0-5.8,4.7-10.6,10.5-10.6
			l95.2-0.2C747,573.1,751.7,577.8,751.7,583.6L751.7,583.6z"/>
	</g>
	<g class="st2">
		<path class="st6" d="M694.8,170.9c0,0-132.5,78.6-129.3,229.2c3.3,150.6,53.5,177.7,53.5,177.7l76.5-0.1l76.5-0.1
			c0,0,50.2-27.2,52.9-177.9C827.6,249,694.8,170.9,694.8,170.9z"/>
	</g>
	<g class="st2">
		<path class="st3" d="M691,173.4c-21.6,14.2-128.4,91.4-125.5,226.8c3.3,150.6,53.5,177.7,53.5,177.7l71.9-0.1L691,173.4L691,173.4
			z"/>
	</g>
	<g class="st2">
		<path class="st7" d="M785.4,261.9c-38.3-60.2-90.6-91-90.6-91s-52.2,31-90.3,91.3c-3,4.7-5.8,9.6-8.6,14.6
			c38.8,14.8,111.1,31.6,198.6,0.4C791.6,271.9,788.5,266.8,785.4,261.9z"/>
	</g>
	<g class="st2">
		<path class="st8" d="M692,172.7c-11.3,7.3-54.7,37.5-87.5,89.5c-3,4.7-5.8,9.6-8.6,14.6c22.2,8.5,55.4,17.6,96.1,18V172.7z"/>
	</g>
	<g class="st2">
		<path class="st8" d="M584.4,480.8L532,545.4c0,0-9,7.3,0,27.3c9.1,20,52.7,115.3,52.7,115.3s3.3,1.8,5.1-2.7
			c0,0-12.2-98.4,40.8-108.5"/>
	</g>
	<g class="st2">
		<path class="st7" d="M807.6,480.4l52.6,64.4c0,0,9.1,7.3,0,27.3c-9,20-52.2,115.5-52.2,115.5s-3.3,1.8-5.1-2.7
			c0,0,11.9-98.5-41.2-108.4"/>
	</g>
	<g class="st2">
		<g>
			<path class="st6" d="M568.3,447C579.6,556.6,619,577.8,619,577.8l76.5-0.1l76.5-0.1c0,0,39.3-21.3,50.2-130.7
				C706.3,513.7,606.3,469.4,568.3,447z"/>
		</g>
	</g>
	<g class="st2">
		<g>
			<path class="st3" d="M695,482.2c-58.1-0.2-103.7-21.7-126.7-35.2C579.6,556.6,619,577.8,619,577.8l75.9-0.1L695,482.2L695,482.2z
				"/>
		</g>
	</g>
	<g class="st2">
		
			<ellipse transform="matrix(1 -1.795439e-03 1.795439e-03 1 -0.6601 1.2468)" class="st9" cx="694.1" cy="368.3" rx="59.6" ry="59.9"/>
	</g>
	<g class="st2">
		<path class="st8" d="M695.1,751.5c0,0,94-137.2-0.2-137C600.7,614.6,695.1,751.5,695.1,751.5z"/>
	</g>
	<g class="st2">
		<path class="st10" d="M741,362.3c0.1,29-23.3,52.5-52.1,52.5c-28.8,0.1-52.2-23.4-52.3-52.3c0-29,23.3-52.5,52.1-52.5
			C717.5,309.9,740.9,333.4,741,362.3z"/>
	</g>
	<g class="st2">
		<path class="st3" d="M694,432.2c-35,0-63.5-28.6-63.6-63.7c-0.1-35.2,28.4-63.9,63.5-64h0.1c35,0,63.5,28.6,63.6,63.7
			C757.7,403.4,729.2,432.1,694,432.2L694,432.2z M694.1,312.5c-30.7,0.1-55.6,25.2-55.6,56c0.1,30.7,25,55.8,55.6,55.8h0.1
			c30.6-0.1,55.5-25.2,55.5-56C749.6,337.5,724.6,312.5,694.1,312.5z"/>
	</g>
	<g class="st2">
		
			<ellipse transform="matrix(1 -1.775463e-03 1.775463e-03 1 -0.8572 1.2331)" class="st9" cx="694.1" cy="483.4" rx="38.6" ry="38.8"/>
	</g>
	<g class="st2">
		
			<ellipse transform="matrix(1 -1.831783e-03 1.831783e-03 1 -0.8772 1.266)" class="st10" cx="690.7" cy="479.5" rx="33.8" ry="34"/>
	</g>
	<g class="st2">
		<path class="st3" d="M694.1,526.2c-23.5,0-42.6-19.2-42.6-42.7c0-23.6,19-42.9,42.6-42.9c23.5,0,42.7,19.2,42.7,42.8
			C736.8,506.9,717.7,526.2,694.1,526.2L694.1,526.2z M694.1,448.6c-19.2,0-34.7,15.7-34.6,34.9c0,19.2,15.6,34.8,34.6,34.8v4l0.1-4
			c19.1,0,34.6-15.7,34.6-34.9C728.7,464.2,713.2,448.6,694.1,448.6z"/>
	</g>
	<g class="st2">
		<path class="st11" d="M695.1,709.2c0,0,59.2-94.8-0.2-94.7C635.5,614.6,695.1,709.2,695.1,709.2z"/>
	</g>
</g>
<g class="st12">
	<g class="st2">
		<path class="st13" d="M413.8,117.7C453,136.5,480,176.6,480,223.1c0,28.7-10.3,54.9-27.4,75.3c0,0,0,0-0.1,0.1
			c-3.5,4.2-7.3,8.1-11.4,11.8c-0.1,0-0.1,0.1-0.2,0.1c-0.8,0.7-1.5,1.3-2.3,2c-0.1,0-0.1,0.1-0.2,0.2c-3.3,2.8-6.8,5.4-10.4,7.8
			c-0.1,0.1-0.2,0.1-0.3,0.2c-0.8,0.5-1.6,1-2.4,1.5c-0.1,0.1-0.3,0.2-0.4,0.3c-0.8,0.5-1.6,1-2.4,1.4c-0.1,0.1-0.2,0.1-0.4,0.2
			c-2.8,1.6-5.6,3.1-8.6,4.5c-0.2,0.1-0.3,0.2-0.5,0.2c-0.8,0.4-1.6,0.7-2.4,1.1c-0.2,0.1-0.5,0.2-0.7,0.3c-0.1,0-0.1,0.1-0.2,0.1
			c-0.7,0.3-1.4,0.6-2,0.9c-0.3,0.1-0.5,0.2-0.8,0.3c-0.8,0.3-1.6,0.6-2.4,0.9c-0.2,0.1-0.4,0.2-0.6,0.2c-0.6,0.2-1.1,0.4-1.7,0.6
			c-0.2,0.1-0.3,0.1-0.5,0.2c-1.3,0.4-2.6,0.9-3.9,1.3c-0.2,0.1-0.4,0.1-0.7,0.2c-0.8,0.2-1.6,0.5-2.4,0.7c-0.2,0.1-0.5,0.1-0.7,0.2
			c-0.2,0-0.4,0.1-0.5,0.1c-0.6,0.2-1.2,0.3-1.8,0.5c-0.3,0.1-0.7,0.2-1,0.3c-0.3,0.1-0.6,0.2-1,0.2h-0.1c-0.4,0.1-0.7,0.2-1.1,0.2
			c-0.3,0.1-0.7,0.1-1,0.2c-0.5,0.1-1.1,0.2-1.6,0.3c-0.3,0.1-0.6,0.1-0.8,0.2c0,0,0,0-0.1,0c-0.2,0-0.4,0.1-0.6,0.1
			c-1,0.2-2.1,0.4-3.1,0.5c0,0,0,0-0.1,0c-0.2,0-0.4,0.1-0.6,0.1c-0.8,0.1-1.7,0.2-2.6,0.3c-0.3,0-0.5,0.1-0.8,0.1s-0.5,0.1-0.8,0.1
			c-0.6,0.1-1.1,0.1-1.7,0.2c-0.4,0-0.8,0.1-1.2,0.1c-0.3,0-0.7,0.1-1,0.1h-0.1c-0.3,0-0.6,0-1,0.1c-0.4,0-0.8,0.1-1.2,0.1
			c-0.5,0-1.1,0.1-1.6,0.1c-0.3,0-0.6,0-0.9,0s-0.5,0-0.8,0c-1.1,0-2.2,0-3.3,0c-0.9,0-1.9,0-2.8,0c-0.1,0-0.1,0-0.2,0
			c-0.2,0-0.5,0-0.7,0c0,0,0,0-0.1,0c-0.3,0-0.5,0-0.8,0s-0.7,0-1,0c-0.1,0-0.3,0-0.4,0c-0.2,0-0.5,0-0.7,0c-0.5,0-1-0.1-1.5-0.1
			c-0.1,0-0.3,0-0.4,0s-0.3,0-0.4,0c-0.2,0-0.4,0-0.6-0.1c-0.5,0-1.1-0.1-1.6-0.1c-0.3,0-0.5,0-0.8-0.1c-0.1,0-0.3,0-0.4,0l0,0
			c-0.1,0-0.2,0-0.3,0c-0.4,0-0.8-0.1-1.3-0.1c-0.3,0-0.6-0.1-1-0.1c-0.1,0-0.1,0-0.2,0c-0.4-0.1-0.8-0.1-1.3-0.2
			c-0.2,0-0.4-0.1-0.7-0.1c-0.2,0-0.5-0.1-0.7-0.1c-0.9-0.1-1.8-0.3-2.7-0.4l0,0c0.1,0,0.2,0.1,0.3,0.1c0.4,0.2,0.8,0.4,1.2,0.5
			c0.4,0.2,0.8,0.4,1.2,0.6c0.4,0.2,0.8,0.4,1.2,0.5c0.4,0.2,0.8,0.4,1.2,0.5c0.4,0.2,0.9,0.4,1.3,0.5c0.4,0.2,0.8,0.3,1.2,0.5
			c0.5,0.2,1,0.4,1.5,0.6h0.1h0.1c0.4,0.1,0.8,0.3,1.2,0.4c0.7,0.2,1.3,0.5,2,0.7c0.4,0.1,0.7,0.2,1.1,0.4c0.5,0.2,1,0.3,1.5,0.5
			c0.4,0.1,0.8,0.2,1.2,0.4c0.5,0.1,1,0.3,1.4,0.4s0.8,0.2,1.2,0.3c0.5,0.1,1,0.3,1.4,0.4l0,0l0,0c0.4,0.1,0.7,0.2,1.1,0.3
			c0.5,0.1,1,0.2,1.5,0.4c0,0,0,0,0.1,0s0.1,0,0.2,0c0.3,0.1,0.6,0.1,0.9,0.2s0.5,0.1,0.8,0.2c0.1,0,0.2,0.1,0.4,0.1
			c0.2,0,0.3,0.1,0.5,0.1l0,0c0.1,0,0.2,0.1,0.3,0.1c0.2,0,0.4,0.1,0.6,0.1c0.6,0.1,1.3,0.3,1.9,0.4c0.1,0,0.1,0,0.2,0s0.2,0,0.3,0
			c0.1,0,0.2,0,0.3,0.1c0.9,0.2,1.8,0.3,2.7,0.4c0.2,0,0.5,0.1,0.7,0.1s0.4,0.1,0.7,0.1c0.4,0.1,0.8,0.1,1.3,0.2c0.1,0,0.1,0,0.2,0
			c0.3,0,0.6,0.1,1,0.1c0.4,0.1,0.8,0.1,1.3,0.2c0.1,0,0.2,0,0.3,0l0,0c0.1,0,0.3,0,0.4,0c0.3,0,0.5,0.1,0.8,0.1
			c0.5,0,1.1,0.1,1.6,0.1c0.2,0,0.4,0,0.6,0.1c0.1,0,0.3,0,0.4,0s0.3,0,0.4,0c0.5,0,1,0.1,1.5,0.1c0.2,0,0.5,0,0.7,0
			c0.1,0,0.3,0,0.4,0c0.3,0,0.7,0,1,0s0.5,0,0.8,0c0,0,0,0,0.1,0c0.2,0,0.5,0,0.7,0c0.1,0,0.1,0,0.2,0c0.9,0,1.9,0,2.8,0
			c1.1,0,2.2,0,3.3,0c0.3,0,0.5,0,0.8,0s0.6,0,0.9,0c0.5,0,1.1,0,1.6-0.1c0.4,0,0.8-0.1,1.2-0.1c0.3,0,0.6,0,1-0.1h0.1
			c0.3,0,0.7-0.1,1-0.1c0.4,0,0.8-0.1,1.2-0.1c0.6-0.1,1.1-0.1,1.7-0.2c0.3,0,0.5-0.1,0.8-0.1s0.5-0.1,0.8-0.1
			c0.9-0.1,1.7-0.2,2.6-0.3c0.2,0,0.4-0.1,0.6-0.1c0,0,0,0,0.1,0c1.1-0.2,2.1-0.3,3.1-0.5c0.2,0,0.4-0.1,0.7-0.1c0,0,0,0,0.1,0
			c0.3-0.1,0.6-0.1,0.8-0.2c0.5-0.1,1.1-0.2,1.6-0.3c0.3-0.1,0.7-0.1,1-0.2c0.4-0.1,0.7-0.2,1.1-0.2h0.1c0.3-0.1,0.6-0.2,1-0.2
			c0.4-0.1,0.7-0.2,1-0.3c0.6-0.2,1.2-0.3,1.8-0.5c0.2,0,0.4-0.1,0.5-0.1c0.2-0.1,0.5-0.1,0.8-0.2c0.8-0.2,1.6-0.5,2.4-0.7
			c0.2-0.1,0.4-0.1,0.7-0.2c1.3-0.4,2.6-0.8,3.9-1.3c0.2-0.1,0.3-0.1,0.5-0.2c0.6-0.2,1.1-0.4,1.7-0.6c0.2-0.1,0.4-0.2,0.6-0.2
			c0.8-0.3,1.6-0.6,2.4-0.9c0.3-0.1,0.5-0.2,0.8-0.3c0.7-0.3,1.4-0.6,2-0.9c0.1,0,0.1-0.1,0.2-0.1c0.2-0.1,0.5-0.2,0.7-0.3
			c0.8-0.4,1.6-0.7,2.4-1.1c0.2-0.1,0.3-0.1,0.5-0.2c2.9-1.4,5.8-2.9,8.6-4.5c0.1-0.1,0.2-0.1,0.4-0.2c0.8-0.5,1.6-1,2.4-1.4
			c0.1-0.1,0.3-0.2,0.4-0.3c0.8-0.5,1.6-1,2.4-1.5c0.1-0.1,0.2-0.1,0.3-0.2c3.6-2.4,7.1-5,10.4-7.8c0.1,0,0.1-0.1,0.2-0.2
			c0.8-0.7,1.5-1.3,2.3-2c0,0,0.1-0.1,0.2-0.1c4.1-3.6,7.9-7.6,11.4-11.8c0,0,0,0,0.1-0.1c17.1-20.3,27.4-46.6,27.4-75.3
			C509.4,175.2,468.1,127.5,413.8,117.7z"/>
	</g>
</g>
<g class="st1">
	<path class="st14" d="M545.2,808.6v72.7l-7.1,4.1h-10.8l-6.6-4.7v-71.6l4.8-3.6h15.1L545.2,808.6z M536.6,811.3h-5.8
		c-0.7,0-1,0.3-1,1v64.5c0,0.5,0.3,0.7,1,0.7h4.7c0.7,0,1-0.2,1-0.7l1.1-64.5C537.7,811.7,537.3,811.3,536.6,811.3z"/>
	<path class="st14" d="M572.6,877.7V808l7.8,0.5v79.1h-25.8l2.6-81h8.3l-2.4,71.8L572.6,877.7z"/>
	<path class="st14" d="M603,814.1v71.3h-9.5l2.2-69.2l-8.1-2.7l1.5-8l23.2,1.6l0.6,7.1L603,814.1L603,814.1z"/>
	<path class="st14" d="M623.3,805.5H646v8.8h-16v23.2h12.2v5.6l-11.6,2v28.7l15.1-2l1.3,11.4h-26.3L623.3,805.5z"/>
	<path class="st14" d="M656.6,885.4v-75.3l-2.5-1.4v-3.3h17.5c5.7,0,10,2.5,10.1,5.5l-1.1,31.2c0,1.1-0.8,5.9-7.1,7.7l6.6,12.4
		l2.4,23.2l-8.2,0.3l-1.8-22.1l-6.2-13.3h-3.2v35L656.6,885.4L656.6,885.4z M666,843.2h5.9c0.4,0,0.7-0.2,0.7-0.7l0.7-28.5
		c0-1.6-0.4-3.7-7.3-3.7c-0.9,0.3-1.3,0.8-1.3,1.4v30.6C664.7,842.6,665.2,843.2,666,843.2z"/>
	<path class="st14" d="M727.1,812.6l-6.7,0.8l-1.7,25l16.2,2.9l-1.6,37.4c0,3.2-5.2,6.8-8.3,6.8h-13.1l-1-19.2h6.5v9.8l7.8,1.8
		L727,848l-15.1-3.4v-36.2l4.5-2.7H734l-0.6,15.9h-4.1L727.1,812.6z"/>
	<path class="st14" d="M768.6,811v31.7c0,1.4-1.1,8.2-11.5,8.2h-5.9v34.4h-6.5V810l-2.5-1.4v-3.3h16.4
		C764.3,805.5,768.6,807.9,768.6,811z M754.1,844.3l4.8-1.1c0.4,0,0.7-0.2,0.7-0.7l1.1-28.4c-0.1-1.7-1.2-3.6-4.7-3.6h-1.9
		c-0.9,0-1.3,0.2-1.3,0.8v32.1C752.7,843.7,753.3,844.3,754.1,844.3z"/>
	<path class="st14" d="M794.9,855.4l-9,4.3l-2.5,25.7h-6.9l5-79.9h17.7l4.6,79.9H799L794.9,855.4z M792.8,810.2l-4.8,1.1
		c-0.4,0.2-0.7,0.6-0.7,1.1V852c0,0.3,0.2,0.6,0.7,0.6l4.1-0.7c0.4,0,0.7-0.2,0.7-0.7l0.7-40.4C793.5,810.4,793.3,810.2,792.8,810.2
		z"/>
	<path class="st14" d="M816.9,883.1l-4.6-4.7l2.2-66.5c0.1-3,2.6-6.4,7.5-6.4c0.4,0,1,0.1,1.5,0.1l17.2,2.3l-1.8,18.1h-5.2v-10.5
		c0-0.7-0.4-1-1.3-1h-6.9c-3.1,0-4,3.4-4,5.6c0,0.9,0.1,1.4,0.3,1.5v52.7c-0.2,0.1-0.3,0.2-0.3,0.3c0,0.3,0.6,0.3,1,0.3h11.1
		c0.9,0,1.3-0.2,1.3-0.7v-8.4l2.1-1.5h3.7v18.8L816.9,883.1L816.9,883.1z"/>
	<path class="st14" d="M852.7,805.5h22.7v8.8h-16v23.2h12.2v5.6l-11.6,2v28.7l15.1-2l1.3,11.4h-26.3L852.7,805.5z"/>
</g>
<g class="st1">
	<ellipse class="st14" cx="685" cy="343.4" rx="14.5" ry="14.5"/>
</g>
<g class="st1">
	<ellipse class="st14" cx="662.7" cy="356.6" rx="7.2" ry="7.3"/>
</g>
<g class="st1">
	<ellipse class="st14" cx="690.5" cy="469.4" rx="8.9" ry="9"/>
</g>
<g class="st1">
	<ellipse class="st14" cx="676.8" cy="477.6" rx="4.5" ry="4.5"/>
</g>
<g class="st1">
	<path class="st15" d="M693,665.9c0,0-2.4-8.2-5.2-20.4c-0.7-3.1-1.5-6.4-2.2-9.9c-0.8-3.5-1.5-7.2-2.3-11
		c-0.7-3.8-1.5-7.8-2.2-11.8s-1.3-8.1-2-12.2c-0.6-4.1-1.7-8.2-2.8-12.2s-2-8-2.1-11.8s0.5-7.5,1.4-11s2-6.8,3.4-9.9
		c1.3-3.1,2.8-5.9,4.4-8.4c1.5-2.5,3.1-4.7,4.5-6.4c0.7-0.9,1.4-1.7,2-2.4s1.1-1.3,1.6-1.8c0.9-1,1.5-1.5,1.5-1.5h4
		c0,0,0.6,0.5,1.5,1.5c0.5,0.5,1,1.1,1.6,1.8s1.4,1.5,2,2.4c1.4,1.8,3,4,4.5,6.4c1.5,2.5,3,5.3,4.4,8.4c1.3,3.1,2.5,6.4,3.4,9.9
		s1.5,7.2,1.4,11s-1,7.8-2.1,11.8s-2.1,8.1-2.8,12.2c-0.7,4.1-1.2,8.2-2,12.2c-0.7,4-1.5,8-2.2,11.8c-0.8,3.8-1.6,7.5-2.3,11
		c-0.8,3.5-1.5,6.8-2.2,9.9c-2.9,12.2-5.2,20.4-5.2,20.4H693z"/>
</g>
<g class="st1">
	<path class="st16" d="M694,535.3h-1c0,0-0.6,0.5-1.5,1.5c-0.5,0.5-1,1.1-1.6,1.8s-1.4,1.5-2,2.4c-1.4,1.8-3,4-4.5,6.4
		c-1.5,2.5-3,5.3-4.4,8.4c-1.3,3.1-2.5,6.4-3.4,9.9s-1.5,7.2-1.4,11s1,7.8,2.1,11.8s2.1,8.1,2.8,12.2c0.7,4.1,1.2,8.2,2,12.2
		c0.7,4,1.5,8,2.2,11.8c0.8,3.8,1.6,7.5,2.3,11c0.8,3.5,1.5,6.8,2.2,9.9c2.9,12.2,5.2,20.4,5.2,20.4h1L694,535.3L694,535.3z"/>
</g>
<g class="st1">
	<ellipse class="st17" cx="977.9" cy="206.4" rx="52.2" ry="52.5"/>
</g>
<g class="st1">
	<g class="st2">
		<path class="st18" d="M991.4,155.7c3.5,7,5.4,14.9,5.4,23.3c0,29-23.4,52.5-52.2,52.5c-4.7,0-9.2-0.6-13.5-1.8
			c8.5,17.3,26.3,29.2,46.8,29.2c28.9,0,52.2-23.5,52.2-52.5C1030.1,182.1,1013.7,161.7,991.4,155.7z"/>
	</g>
</g>
<g class="st1">
	<ellipse class="st19" cx="471.3" cy="452" rx="52.2" ry="52.5"/>
</g>
<g class="st1">
	<g class="st2">
		<path class="st20" d="M484.8,401.2c3.5,7,5.4,14.9,5.4,23.3c0,29-23.4,52.5-52.2,52.5c-4.7,0-9.2-0.6-13.5-1.8
			c8.5,17.3,26.3,29.2,46.8,29.2c28.9,0,52.2-23.5,52.2-52.5C523.6,427.7,507.1,407.2,484.8,401.2z"/>
	</g>
</g>
<g class="st1">
	<ellipse class="st21" cx="497.2" cy="724.8" rx="41.1" ry="41.3"/>
</g>
<g class="st1">
	<g class="st2">
		<path class="st22" d="M507.8,685c2.7,5.5,4.3,11.7,4.3,18.3c0,22.8-18.4,41.3-41.1,41.3c-3.7,0-7.2-0.5-10.6-1.4
			c6.7,13.6,20.7,22.9,36.8,22.9c22.7,0,41.1-18.5,41.1-41.3C538.3,705.7,525.4,689.7,507.8,685z"/>
	</g>
</g>
<g class="st1">
	<path class="st23" d="M1001,540.8c-22.6,23.4-59.8,24-83.1,1.3s-23.9-60.1-1.2-83.5c22.6-23.4,59.8-24,83.1-1.3
		C1023,480,1023.6,517.4,1001,540.8z"/>
</g>
<g class="st12">
	<g class="st2">
		<path class="st24" d="M973.9,442.6c3.9,7.9,6.1,16.8,6.1,26.3c0,32.6-26.3,59.1-58.8,59.1c-5.2,0-10.3-0.7-15.2-2
			c9.6,19.5,29.6,32.8,52.7,32.8c32.5,0,58.8-26.4,58.8-59.1C1017.6,472.3,999,449.3,973.9,442.6z"/>
	</g>
</g>
<g class="st1">
	<rect x="926.9" y="461.3" class="st25" width="61.5" height="7.2"/>
</g>
<g class="st1">
	<rect x="912.7" y="475.6" class="st25" width="61.5" height="7.2"/>
</g>
<g class="st1">
	<rect x="938.7" y="489.9" class="st25" width="61.5" height="7.2"/>
</g>
<g class="st1">
	<rect x="912.7" y="503.3" class="st25" width="61.5" height="7.2"/>
</g>
<g class="st1">
	<rect x="938.7" y="518" class="st25" width="61.5" height="7.2"/>
</g>
<g class="st1">
	<rect x="922.3" y="530.7" class="st25" width="61.5" height="7.2"/>
</g>
<g class="st1">
	<g class="st2">
		<path class="st26" d="M1019.5,660.6c-4.4-0.8-8.8-1.6-13.3-2.3c-5-0.8-9.9-1.5-14.9-2.1s-9.9-1.2-14.8-1.5
			c-3.8-0.3-7.6-0.4-11.1-0.4c2.9,2.1,6.1,4.2,9.3,6.2c4.2,2.6,8.5,5,12.9,7.4s8.8,4.7,13.3,7s9,4.5,13.6,6.7v-0.1
			C1015.2,674.1,1016.9,667.1,1019.5,660.6z"/>
	</g>
	<g class="st2">
		<path class="st26" d="M1255.1,746.3c-0.2-1.3-1-3-2.6-4.9c-3.2-3.7-8.9-8.2-16.7-12.8c-7.8-4.7-17.7-9.7-29.3-14.8
			c-9.1-4.1-19.4-8.2-30.5-12.2c-0.7,5.2-1.9,10.3-3.6,15.1v0.1c-2.2,6.4-5.1,12.4-8.7,17.9c-0.1,0.1-0.1,0.2-0.2,0.3
			c-0.9,1.3-1.8,2.6-2.7,3.9l0,0c12.5,3.6,24.2,6.6,34.8,8.9c12.4,2.7,23.3,4.4,32.4,5.2s16.3,0.6,21-0.6c2.4-0.6,4.1-1.5,4.9-2.4
			c0.4-0.5,0.7-0.9,0.8-1.2c0.1-0.3,0.2-0.4,0.2-0.4s0-0.2,0.1-0.5C1255.2,747.4,1255.2,746.9,1255.1,746.3z"/>
	</g>
	<g class="st2">
		<path class="st26" d="M955.8,655.3L955.8,655.3C955.7,655.3,955.7,655.3,955.8,655.3z"/>
	</g>
	<g class="st2">
		<path class="st27" d="M1160.7,641.1L1160.7,641.1C1160.8,641.2,1160.7,641.2,1160.7,641.1z"/>
	</g>
	<g class="st2">
		<path class="st27" d="M1168.7,654.4c0,0.1,0.1,0.2,0.1,0.3C1168.8,654.6,1168.8,654.5,1168.7,654.4z"/>
	</g>
	<g class="st2">
		<path class="st27" d="M1163,644.4C1163,644.4,1163.1,644.5,1163,644.4C1163.1,644.5,1163,644.4,1163,644.4z"/>
	</g>
	<g class="st2">
		<path class="st27" d="M1166.9,650.9c0.1,0.2,0.2,0.3,0.3,0.5C1167.1,651.2,1167,651,1166.9,650.9z"/>
	</g>
	<g class="st2">
		<path class="st27" d="M1165,647.6c0.1,0.2,0.2,0.3,0.3,0.5C1165.2,647.9,1165.1,647.7,1165,647.6z"/>
	</g>
	<g class="st2">
		<path class="st27" d="M1157.9,637.6c0.2,0.3,0.5,0.6,0.7,0.9C1158.4,638.1,1158.1,637.9,1157.9,637.6z"/>
	</g>
	<g class="st2">
		<path class="st27" d="M1152.8,632c0.4,0.4,0.7,0.7,1.1,1.1C1153.5,632.7,1153.1,632.3,1152.8,632z"/>
	</g>
	<g class="st2">
		<path class="st27" d="M1137.1,619.7c0.6,0.4,1.3,0.8,1.9,1.2C1138.4,620.5,1137.7,620.1,1137.1,619.7z"/>
	</g>
	<g class="st2">
		<path class="st27" d="M1140.1,621.7c0.6,0.4,1.2,0.8,1.8,1.2C1141.3,622.5,1140.7,622.1,1140.1,621.7z"/>
	</g>
	<g class="st2">
		<path class="st27" d="M1125.1,613.9c2.7,1.1,5.4,2.3,8,3.6C1130.5,616.2,1127.9,614.9,1125.1,613.9z"/>
	</g>
	<g class="st2">
		<path class="st27" d="M1143.1,623.7c0.6,0.4,1.2,0.8,1.7,1.3C1144.2,624.6,1143.7,624.1,1143.1,623.7z"/>
	</g>
	<g class="st2">
		<path class="st27" d="M1150.1,629.4c0.4,0.4,0.8,0.8,1.2,1.1C1150.9,630.2,1150.5,629.8,1150.1,629.4z"/>
	</g>
	<g class="st2">
		<path class="st27" d="M1155.3,634.7c0.3,0.3,0.6,0.7,1,1.1C1156,635.4,1155.7,635,1155.3,634.7z"/>
	</g>
	<g class="st2">
		<path class="st27" d="M1146,625.9c0.9,0.7,1.8,1.4,2.6,2.2C1147.8,627.4,1146.9,626.7,1146,625.9z"/>
	</g>
	<g class="st2">
		<path class="st27" d="M1133.9,617.9c0.7,0.4,1.4,0.8,2.1,1.2C1135.3,618.7,1134.6,618.3,1133.9,617.9z"/>
	</g>
	<g class="st2">
		<path class="st27" d="M1121.9,674.2c0.4,0.1,0.7,0.3,1.1,0.4c3.2-7.4,5.4-15.4,6.2-23.9c1.4-13-0.4-25.6-4.6-37.1
			c-6.5-2.5-13.4-4.2-20.6-5c-30.4-3.3-58.7,10.8-75.2,34.3c13.7,3.5,27,7.5,39.8,11.8C1087.4,660.9,1105.2,667.6,1121.9,674.2z"/>
	</g>
	<g class="st2">
		<path class="st27" d="M1163.8,734.6c-0.1,0.1-0.1,0.2-0.2,0.3C1163.6,734.8,1163.7,734.7,1163.8,734.6z"/>
	</g>
	<g class="st2">
		<path class="st27" d="M1118.6,683.3c-17.1-4.8-35.3-9.3-54.1-13.5c-14.7-3.3-29.8-6.4-45.1-9.2c-2.5,6.5-4.2,13.5-5,20.8v0.1
			c13.5,6.5,27.1,12.5,40.4,18.3c11.2,4.8,22.3,9.4,33.1,13.6C1100.6,706.4,1111.2,696,1118.6,683.3z"/>
	</g>
	<g class="st2">
		<path class="st27" d="M1160.8,738.8C1160.9,738.8,1160.9,738.8,1160.8,738.8C1160.9,738.8,1160.9,738.8,1160.8,738.8L1160.8,738.8
			z"/>
	</g>
	<g class="st2">
		<path class="st27" d="M1172.5,716.5L1172.5,716.5C1172.4,716.6,1172.5,716.6,1172.5,716.5z"/>
	</g>
	<g class="st2">
		<path class="st27" d="M1030.9,739.9c-0.4-0.5-0.8-1-1.1-1.5C1030.1,738.9,1030.5,739.4,1030.9,739.9z"/>
	</g>
	<g class="st2">
		<path class="st27" d="M1131.8,763.3c-0.3,0.2-0.7,0.3-1,0.5C1131.1,763.6,1131.5,763.4,1131.8,763.3z"/>
	</g>
	<g class="st2">
		<path class="st27" d="M1029.2,737.6c-0.4-0.5-0.8-1.1-1.2-1.7C1028.4,736.5,1028.8,737,1029.2,737.6z"/>
	</g>
	<g class="st2">
		<path class="st27" d="M1117.9,768.7c-0.5,0.1-0.9,0.3-1.4,0.4C1117,769,1117.4,768.8,1117.9,768.7z"/>
	</g>
	<g class="st2">
		<path class="st27" d="M1040,749.9c-1.6-1.5-3.1-3-4.6-4.6C1036.8,746.9,1038.4,748.5,1040,749.9z"/>
	</g>
	<g class="st2">
		<path class="st27" d="M1034.7,744.5c-0.4-0.5-0.8-0.9-1.2-1.4C1033.9,743.6,1034.3,744.1,1034.7,744.5z"/>
	</g>
	<g class="st2">
		<path class="st27" d="M1032.7,742.3c-0.4-0.5-0.8-1-1.2-1.5C1032,741.3,1032.3,741.8,1032.7,742.3z"/>
	</g>
	<g class="st2">
		<path class="st27" d="M1122.3,767.3c-0.3,0.1-0.7,0.2-1,0.3C1121.6,767.5,1121.9,767.4,1122.3,767.3z"/>
	</g>
	<g class="st2">
		<path class="st27" d="M1126.7,765.6L1126.7,765.6C1126.7,765.6,1126.7,765.6,1126.7,765.6z"/>
	</g>
	<g class="st2">
		<path class="st27" d="M1023.5,728.5c-0.3-0.6-0.6-1.2-0.9-1.7C1022.9,727.3,1023.2,727.9,1023.5,728.5z"/>
	</g>
	<g class="st2">
		<path class="st27" d="M1020.9,723.1c-0.3-0.6-0.5-1.2-0.8-1.8C1020.4,721.9,1020.7,722.5,1020.9,723.1z"/>
	</g>
	<g class="st2">
		<path class="st27" d="M1022.2,725.8c-0.3-0.6-0.6-1.2-0.8-1.8C1021.6,724.6,1021.9,725.2,1022.2,725.8z"/>
	</g>
	<g class="st2">
		<path class="st27" d="M1154.8,746c-0.1,0.1-0.2,0.2-0.2,0.3C1154.6,746.2,1154.7,746.1,1154.8,746z"/>
	</g>
	<g class="st2">
		<path class="st27" d="M1151.6,749.3c-0.2,0.2-0.5,0.5-0.7,0.7C1151.1,749.7,1151.3,749.5,1151.6,749.3z"/>
	</g>
	<g class="st2">
		<path class="st27" d="M1148.1,752.5c-0.2,0.2-0.5,0.4-0.7,0.6C1147.6,752.9,1147.8,752.7,1148.1,752.5z"/>
	</g>
	<g class="st2">
		<path class="st27" d="M1027.8,735.5c-0.9-1.4-1.8-2.8-2.7-4.2C1025.9,732.7,1026.8,734.1,1027.8,735.5z"/>
	</g>
	<g class="st2">
		<path class="st27" d="M1136,761c-0.3,0.2-0.7,0.4-1,0.6C1135.3,761.4,1135.6,761.2,1136,761z"/>
	</g>
	<g class="st2">
		<path class="st27" d="M1025,731.1c-0.3-0.6-0.7-1.2-1-1.8C1024.3,729.9,1024.7,730.5,1025,731.1z"/>
	</g>
	<g class="st2">
		<path class="st27" d="M1074,769c-0.4-0.1-0.8-0.2-1.2-0.3C1073.2,768.8,1073.6,768.9,1074,769z"/>
	</g>
	<g class="st2">
		<path class="st27" d="M1042.1,751.9c-0.4-0.4-0.9-0.7-1.3-1.1C1041.3,751.2,1041.7,751.5,1042.1,751.9z"/>
	</g>
	<g class="st2">
		<path class="st27" d="M1061.1,764.3c-0.4-0.2-0.8-0.4-1.2-0.6C1060.3,763.9,1060.7,764.1,1061.1,764.3z"/>
	</g>
	<g class="st2">
		<path class="st27" d="M1063.9,765.5c-0.4-0.2-0.8-0.3-1.2-0.5C1063.2,765.2,1063.5,765.4,1063.9,765.5z"/>
	</g>
	<g class="st2">
		<path class="st27" d="M1058.3,762.9c-0.4-0.2-0.8-0.4-1.2-0.6C1057.5,762.5,1057.9,762.7,1058.3,762.9z"/>
	</g>
	<g class="st2">
		<path class="st27" d="M1066.8,766.7c-0.3-0.1-0.6-0.2-0.9-0.4C1066.2,766.5,1066.5,766.6,1066.8,766.7z"/>
	</g>
	<g class="st2">
		<path class="st27" d="M1077.2,769.8c-0.4-0.1-0.8-0.2-1.2-0.3C1076.3,769.6,1076.8,769.7,1077.2,769.8z"/>
	</g>
	<g class="st2">
		<path class="st27" d="M1080.3,770.5c-0.4-0.1-0.8-0.2-1.2-0.2C1079.5,770.3,1079.9,770.4,1080.3,770.5z"/>
	</g>
	<g class="st2">
		<path class="st27" d="M1070.7,768c-0.3-0.1-0.6-0.2-0.9-0.3C1070.1,767.8,1070.4,767.9,1070.7,768z"/>
	</g>
	<g class="st2">
		<path class="st27" d="M1055.5,761.4c-0.4-0.2-0.8-0.4-1.2-0.7C1054.7,760.9,1055.1,761.2,1055.5,761.4z"/>
	</g>
	<g class="st2">
		<path class="st27" d="M1083.6,771c-0.4-0.1-0.7-0.1-1-0.2C1082.9,770.9,1083.2,771,1083.6,771z"/>
	</g>
	<g class="st2">
		<path class="st27" d="M1107.6,771c-0.1,0-0.1,0-0.2,0C1107.5,771,1107.6,771,1107.6,771z"/>
	</g>
	<g class="st2">
		<path class="st27" d="M1044.4,753.8c-0.4-0.3-0.9-0.7-1.3-1C1043.6,753.2,1044,753.5,1044.4,753.8z"/>
	</g>
	<g class="st2">
		<path class="st27" d="M1046.8,755.7c-0.4-0.3-0.8-0.6-1.3-1C1046,755.1,1046.4,755.4,1046.8,755.7z"/>
	</g>
	<g class="st2">
		<path class="st27" d="M1113.3,769.9c-0.4,0.1-0.9,0.2-1.3,0.3C1112.4,770.1,1112.8,770,1113.3,769.9z"/>
	</g>
	<g class="st2">
		<path class="st27" d="M1052.6,759.7c-0.6-0.4-1.1-0.7-1.7-1.1C1051.5,758.9,1052,759.3,1052.6,759.7z"/>
	</g>
	<g class="st2">
		<path class="st27" d="M1093.1,771.8c-0.5,0-1,0-1.5,0C1092.1,771.8,1092.6,771.8,1093.1,771.8z"/>
	</g>
	<g class="st2">
		<path class="st27" d="M1098,771.8c-0.5,0-1.1,0-1.6,0C1097,771.9,1097.5,771.8,1098,771.8z"/>
	</g>
	<g class="st2">
		<path class="st27" d="M1049.3,757.5c-0.4-0.3-0.8-0.6-1.2-0.9C1048.5,756.9,1048.9,757.2,1049.3,757.5z"/>
	</g>
	<g class="st2">
		<path class="st27" d="M1102.8,771.6c-0.5,0-0.9,0.1-1.4,0.1C1101.9,771.6,1102.3,771.6,1102.8,771.6z"/>
	</g>
	<g class="st2">
		<path class="st27" d="M1139.8,758.6c-0.2,0.1-0.4,0.2-0.6,0.4C1139.5,758.9,1139.7,758.8,1139.8,758.6z"/>
	</g>
	<g class="st2">
		<path class="st27" d="M1158,742.4L1158,742.4L1158,742.4L1158,742.4z"/>
	</g>
	<g class="st2">
		<path class="st27" d="M1039.6,723.4c10.6,1.1,20.9,0.1,30.6-2.6c-6.9-2-13.8-4.1-20.8-6.3c-11.4-3.6-22.9-7.6-34.5-12
			c0.9,6.2,2.6,12.2,4.9,17.9c-0.3-0.6-0.5-1.3-0.7-1.9C1025.5,721,1032.4,722.7,1039.6,723.4z"/>
	</g>
	<g class="st2">
		<path class="st28" d="M958.4,651.4c0-0.1,0-0.2,0-0.2l-0.1,0.4C958.4,651.6,958.4,651.8,958.4,651.4z"/>
	</g>
	<g class="st2">
		<path class="st28" d="M958.5,651.1L958.5,651.1L958.5,651.1L958.5,651.1z"/>
	</g>
	<g class="st2">
		<path class="st28" d="M958.8,648.5c-0.4-0.5-0.7-1-0.6-0.8c0,0,0.2,0.5,0.3,1.1c0,0.2,0.1,0.4,0.1,0.6v0.4c0,0.2,0,0.5,0,0.8
			c0,0.2-0.1,0.3-0.1,0.5l0,0v0.1c0,0.1,0,0.2,0,0.2c-0.1,0.4-0.1,0.3,0,0.2l0.1-0.4l0,0c-0.5,1.8-0.2,0.7-0.4,1.3
			c-0.1,0.1-0.1,0.3-0.2,0.4c-0.2,0.3-0.2,0.5-0.4,0.7c-0.3,0.5-0.5,0.8-0.9,1.1c-0.4,0.5-0.8,0.7-0.9,0.7c0.1,0,0.5-0.2,0.9-0.3
			c1.4-0.4,3.5-0.6,5.6-0.7c1,0,2-0.1,3-0.1c-0.8-0.6-1.6-1.2-2.4-1.8C961.3,651.1,959.7,649.6,958.8,648.5z"/>
	</g>
	<g class="st2">
		<path class="st28" d="M1255.2,746.2c-0.2-1.3-1-3-2.6-4.9c-3.1-3.8-8.9-8.2-16.6-13.1c-7.7-4.9-17.4-10.2-28.8-16
			c-9.2-4.7-19.5-9.6-30.8-14.7c0,0.4-0.1,0.8-0.1,1.2c-0.1,0.9-0.2,1.8-0.4,2.8c11.1,4.1,21.4,8.2,30.5,12.2
			c11.6,5.1,21.5,10.2,29.3,14.8c7.8,4.7,13.5,9.1,16.7,12.8C1254.1,743.2,1255,745,1255.2,746.2c0.1,0.6,0,1.1,0,1.4
			c-0.1,0.3-0.1,0.5-0.1,0.5s0-0.2,0.1-0.5C1255.2,747.4,1255.2,746.9,1255.2,746.2z"/>
	</g>
	<g class="st2">
		<path class="st28" d="M1254,749.8c-0.9,0.9-2.6,1.8-4.9,2.4c-4.7,1.2-12,1.4-21,0.6c-9.1-0.8-20-2.5-32.4-5.2
			c-10.6-2.3-22.3-5.2-34.8-8.9l0,0c-0.9,1.2-1.8,2.4-2.8,3.6l0,0c13.5,2.8,26.1,5.1,37.3,6.9c12.6,2,23.6,3.4,32.7,3.9
			s16.3,0.4,21.1-0.9C1251.5,751.7,1253.2,750.7,1254,749.8c0.4-0.5,0.7-0.9,0.8-1.2c0.1-0.3,0.2-0.4,0.2-0.4s-0.1,0.1-0.2,0.4
			C1254.7,748.9,1254.4,749.3,1254,749.8z"/>
	</g>
	<g class="st2">
		<path class="st28" d="M1000.9,674.9c-4.5-2.3-8.9-4.6-13.3-7c-4.4-2.4-8.7-4.8-12.9-7.4c-3.2-2-6.4-4.1-9.3-6.2c-1,0-2,0-3,0.1
			c-2.2,0.1-4.3,0.4-5.6,0.7c-0.5,0.1-0.8,0.2-0.9,0.3l0,0c-0.1,0,0,0,0,0s0.5-0.2,0.9-0.7c0.3-0.3,0.5-0.6,0.9-1.1
			c0.2-0.2,0.2-0.5,0.4-0.7c0.1-0.1,0.1-0.3,0.2-0.4c0.2-0.5-0.1,0.6,0.4-1.3c0-0.2,0.1-0.3,0.1-0.5s0-0.5,0-0.8v-0.4
			c0-0.2,0-0.4-0.1-0.6c-0.1-0.6-0.3-1.1-0.3-1.1c-0.1-0.2,0.1,0.3,0.6,0.8c0.9,1.1,2.5,2.5,4.2,3.9c0.8,0.6,1.6,1.2,2.4,1.8
			c3.6,0,7.4,0.1,11.1,0.4c4.9,0.3,9.8,0.9,14.8,1.5s9.9,1.3,14.9,2.1c4.4,0.7,8.9,1.5,13.3,2.3c2.4-6.3,5.6-12.2,9.4-17.6
			c-6.2-1.6-12.5-3.1-19-4.5c-5.1-1.1-10.3-2.1-15.5-3s-10.6-1.6-16-2.2c-5.5-0.6-11-0.9-17-0.7c-3,0.1-6.1,0.4-9.8,1.2
			c-1.9,0.5-3.9,1-6.4,2.4c-1.2,0.6-2.7,1.7-4,3c-0.7,0.8-1.4,1.6-2.1,2.6c-0.3,0.5-0.6,1-0.9,1.6l-0.4,0.9c-0.2,0.7,0-0.3-0.6,1.8
			l-0.1,0.5c0,0.1,0,0.1-0.1,0.6c-0.1,0.4-0.1,0.8-0.2,1.2c0,0.4-0.1,0.8-0.1,1.2c0,0.5,0,0.6,0,0.9c0,0.5,0.1,1.1,0.2,1.6
			c0.3,1.9,0.9,3.6,1.5,4.8c1.2,2.6,2.5,4.2,3.8,5.7c2.5,2.9,4.9,4.9,7.2,6.8c4.7,3.7,9.4,6.7,14.2,9.4c9.5,5.5,19,10.1,28.6,14.3
			c7.6,3.3,15.1,6.4,22.7,9.3c-1-6.8-1.2-13.8-0.5-21C1009.9,679.4,1005.4,677.2,1000.9,674.9z"/>
	</g>
	<g class="st2">
		<path class="st28" d="M1070.2,720.9c6.2-1.8,12.2-4.2,17.7-7.4c-10.8-4.3-21.9-8.8-33.1-13.6c-13.3-5.8-26.9-11.8-40.4-18.3
			c-0.7,7.2-0.5,14.2,0.5,21c11.6,4.4,23.1,8.4,34.5,12C1056.4,716.8,1063.4,718.9,1070.2,720.9z"/>
	</g>
	<g class="st2">
		<path class="st28" d="M1160.8,738.8L1160.8,738.8L1160.8,738.8L1160.8,738.8z"/>
	</g>
	<g class="st2">
		<path class="st28" d="M1158,742.4L1158,742.4L1158,742.4L1158,742.4z"/>
	</g>
	<g class="st2">
		<path class="st27" d="M1064.5,669.7c18.8,4.2,37,8.8,54.1,13.5c1.6-2.8,3.1-5.6,4.4-8.6c-0.4-0.1-0.7-0.3-1.1-0.4
			c-16.7-6.6-34.6-13.3-53.3-19.5c-12.9-4.2-26.1-8.2-39.8-11.8c-3.8,5.4-6.9,11.3-9.4,17.6C1034.8,663.3,1049.8,666.5,1064.5,669.7
			z"/>
	</g>
	<g class="st2">
		<path class="st29" d="M1075.9,769.5c-0.7-0.2-1.3-0.3-2-0.5C1074.6,769.2,1075.3,769.3,1075.9,769.5z"/>
	</g>
	<g class="st2">
		<path class="st29" d="M1062.8,765c-0.6-0.2-1.1-0.5-1.7-0.8C1061.6,764.5,1062.2,764.8,1062.8,765z"/>
	</g>
	<g class="st2">
		<path class="st29" d="M1072.8,768.7c-0.7-0.2-1.5-0.4-2.2-0.7C1071.4,768.2,1072.1,768.5,1072.8,768.7z"/>
	</g>
	<g class="st2">
		<path class="st29" d="M1079.1,770.2c-0.7-0.1-1.3-0.3-2-0.4C1077.8,769.9,1078.5,770.1,1079.1,770.2z"/>
	</g>
	<g class="st2">
		<path class="st29" d="M1091.6,771.8c-1.6-0.1-3.2-0.2-4.8-0.4C1088.4,771.6,1090,771.7,1091.6,771.8z"/>
	</g>
	<g class="st2">
		<path class="st29" d="M1082.5,770.8c-0.7-0.1-1.5-0.2-2.2-0.4C1081.1,770.6,1081.8,770.7,1082.5,770.8z"/>
	</g>
	<g class="st2">
		<path class="st29" d="M1086.8,771.4c-1.1-0.1-2.2-0.3-3.3-0.4C1084.6,771.2,1085.7,771.3,1086.8,771.4z"/>
	</g>
	<g class="st2">
		<path class="st29" d="M1150.9,750c-0.9,0.9-1.9,1.7-2.8,2.5C1149,751.7,1149.9,750.8,1150.9,750z"/>
	</g>
	<g class="st2">
		<path class="st29" d="M1065.9,766.3c-0.7-0.3-1.3-0.5-2-0.8C1064.6,765.8,1065.3,766.1,1065.9,766.3z"/>
	</g>
	<g class="st2">
		<path class="st29" d="M1158,742.4c-1,1.2-2.1,2.5-3.2,3.6C1155.9,744.9,1157,743.7,1158,742.4z"/>
	</g>
	<g class="st2">
		<path class="st29" d="M1134.9,761.6c-1,0.6-2.1,1.1-3.1,1.7C1132.9,762.7,1133.9,762.2,1134.9,761.6z"/>
	</g>
	<g class="st2">
		<path class="st29" d="M1154.6,746.3c-1,1-2,2-3,3C1152.6,748.3,1153.6,747.3,1154.6,746.3z"/>
	</g>
	<g class="st2">
		<path class="st29" d="M1069.8,767.7c-1-0.3-2-0.7-2.9-1C1067.8,767.1,1068.8,767.4,1069.8,767.7z"/>
	</g>
	<g class="st2">
		<path class="st29" d="M1121.3,767.7c-1.1,0.4-2.2,0.7-3.4,1.1C1119,768.4,1120.2,768,1121.3,767.7z"/>
	</g>
	<g class="st2">
		<path class="st29" d="M1126.6,765.6c-1.4,0.6-2.9,1.2-4.4,1.7C1123.7,766.8,1125.2,766.2,1126.6,765.6z"/>
	</g>
	<g class="st2">
		<path class="st29" d="M1096.4,771.9c-1.1,0-2.2,0-3.3,0C1094.2,771.9,1095.3,771.9,1096.4,771.9z"/>
	</g>
	<g class="st2">
		<path class="st29" d="M1130.8,763.8c-1.3,0.6-2.7,1.3-4.1,1.8C1128.1,765,1129.5,764.4,1130.8,763.8z"/>
	</g>
	<g class="st2">
		<path class="st29" d="M1139.3,759c-1.1,0.7-2.2,1.4-3.3,2C1137.1,760.4,1138.2,759.7,1139.3,759z"/>
	</g>
	<g class="st2">
		<path class="st29" d="M1147.3,753.1c-2.4,2-4.9,3.8-7.5,5.5C1142.4,756.9,1144.9,755.1,1147.3,753.1z"/>
	</g>
	<g class="st2">
		<path class="st29" d="M1116.5,769.1c-1.1,0.3-2.2,0.6-3.2,0.8C1114.4,769.6,1115.4,769.4,1116.5,769.1z"/>
	</g>
	<g class="st2">
		<path class="st29" d="M1107.4,771c-1.5,0.2-3.1,0.4-4.6,0.5C1104.3,771.4,1105.9,771.2,1107.4,771z"/>
	</g>
	<g class="st2">
		<path class="st29" d="M1101.4,771.7c-1.1,0.1-2.2,0.1-3.4,0.2C1099.2,771.8,1100.3,771.7,1101.4,771.7z"/>
	</g>
	<g class="st2">
		<path class="st29" d="M1176.5,697.5c1.4-15.2-1.5-29.9-7.7-42.8C1175,667.6,1177.9,682.2,1176.5,697.5L1176.5,697.5z"/>
	</g>
	<g class="st2">
		<path class="st29" d="M1112,770.2c-1.4,0.3-2.9,0.6-4.3,0.8C1109.1,770.8,1110.5,770.5,1112,770.2z"/>
	</g>
	<g class="st2">
		<path class="st29" d="M1163.1,644.5c0.7,1,1.3,2,1.9,3.1C1164.4,646.5,1163.7,645.5,1163.1,644.5z"/>
	</g>
	<g class="st2">
		<path class="st29" d="M1151.3,630.6c0.5,0.5,1,0.9,1.5,1.4C1152.3,631.5,1151.8,631,1151.3,630.6z"/>
	</g>
	<g class="st2">
		<path class="st29" d="M1033.5,743.1c-0.2-0.3-0.5-0.6-0.7-0.9C1033,742.5,1033.2,742.8,1033.5,743.1z"/>
	</g>
	<g class="st2">
		<path class="st29" d="M1031.6,740.8c-0.2-0.3-0.5-0.6-0.7-0.9C1031.1,740.2,1031.3,740.5,1031.6,740.8z"/>
	</g>
	<g class="st2">
		<path class="st29" d="M1148.6,628.1c0.5,0.4,1,0.9,1.5,1.3C1149.6,629,1149.1,628.6,1148.6,628.1z"/>
	</g>
	<g class="st2">
		<path class="st29" d="M1029.7,738.4c-0.2-0.3-0.4-0.5-0.6-0.8C1029.4,737.8,1029.5,738.1,1029.7,738.4z"/>
	</g>
	<g class="st2">
		<path class="st29" d="M1040.9,750.8c-0.3-0.3-0.6-0.6-0.9-0.8C1040.3,750.2,1040.6,750.5,1040.9,750.8z"/>
	</g>
	<g class="st2">
		<path class="st29" d="M1153.9,633.1c0.5,0.5,1,1,1.5,1.6C1154.9,634.1,1154.4,633.6,1153.9,633.1z"/>
	</g>
	<g class="st2">
		<path class="st29" d="M1156.3,635.7c0.5,0.6,1.1,1.2,1.6,1.9C1157.4,636.9,1156.8,636.3,1156.3,635.7z"/>
	</g>
	<g class="st2">
		<path class="st29" d="M1144.8,625c0.4,0.3,0.8,0.6,1.2,1C1145.6,625.6,1145.2,625.3,1144.8,625z"/>
	</g>
	<g class="st2">
		<path class="st29" d="M1158.6,638.4c0.7,0.9,1.4,1.8,2.1,2.7C1160,640.2,1159.3,639.3,1158.6,638.4z"/>
	</g>
	<g class="st2">
		<path class="st29" d="M1035.4,745.3c-0.2-0.3-0.5-0.5-0.7-0.8C1034.9,744.8,1035.2,745.1,1035.4,745.3z"/>
	</g>
	<g class="st2">
		<path class="st29" d="M1133.1,617.5c0.3,0.1,0.6,0.3,0.8,0.4C1133.7,617.8,1133.4,617.7,1133.1,617.5z"/>
	</g>
	<g class="st2">
		<path class="st29" d="M1021.4,724c-0.1-0.3-0.3-0.6-0.4-1C1021.1,723.4,1021.2,723.7,1021.4,724z"/>
	</g>
	<g class="st2">
		<path class="st29" d="M1022.6,726.7c-0.2-0.3-0.3-0.6-0.5-0.9C1022.3,726.1,1022.5,726.4,1022.6,726.7z"/>
	</g>
	<g class="st2">
		<path class="st29" d="M1124.6,613.7L1124.6,613.7c0.2,0.1,0.3,0.1,0.5,0.2C1125,613.8,1124.8,613.7,1124.6,613.7z"/>
	</g>
	<g class="st2">
		<path class="st29" d="M1141.9,622.9c0.4,0.3,0.8,0.6,1.2,0.8C1142.7,623.4,1142.3,623.2,1141.9,622.9z"/>
	</g>
	<g class="st2">
		<path class="st29" d="M1139,620.9c0.4,0.2,0.8,0.5,1.1,0.7C1139.8,621.4,1139.4,621.2,1139,620.9z"/>
	</g>
	<g class="st2">
		<path class="st29" d="M1028,735.9c-0.1-0.1-0.2-0.3-0.3-0.4C1027.8,735.7,1027.9,735.8,1028,735.9z"/>
	</g>
	<g class="st2">
		<path class="st29" d="M1024,729.3c-0.1-0.3-0.3-0.5-0.4-0.8C1023.7,728.8,1023.8,729,1024,729.3z"/>
	</g>
	<g class="st2">
		<path class="st29" d="M1136,619.1c0.4,0.2,0.7,0.4,1.1,0.6C1136.7,619.5,1136.4,619.3,1136,619.1z"/>
	</g>
	<g class="st2">
		<path class="st29" d="M1025.1,731.3c0-0.1-0.1-0.1-0.1-0.2C1025,731.2,1025.1,731.2,1025.1,731.3z"/>
	</g>
	<g class="st2">
		<path class="st29" d="M1048.1,756.6c-0.4-0.3-0.8-0.6-1.2-0.9C1047.2,756,1047.6,756.3,1048.1,756.6z"/>
	</g>
	<g class="st2">
		<path class="st29" d="M1054.3,760.7c-0.6-0.3-1.2-0.7-1.7-1.1C1053.2,760,1053.7,760.4,1054.3,760.7z"/>
	</g>
	<g class="st2">
		<path class="st29" d="M1050.9,758.6c-0.5-0.4-1.1-0.7-1.6-1.1C1049.8,757.9,1050.4,758.2,1050.9,758.6z"/>
	</g>
	<g class="st2">
		<path class="st29" d="M1020.2,721.3c-0.1-0.3-0.2-0.6-0.3-0.9C1019.9,720.7,1020,721,1020.2,721.3z"/>
	</g>
	<g class="st2">
		<path class="st29" d="M1167.2,651.4c0.5,1,1,2,1.5,3C1168.2,653.4,1167.7,652.4,1167.2,651.4z"/>
	</g>
	<g class="st2">
		<path class="st29" d="M1165.3,648c0.6,0.9,1.1,1.9,1.6,2.8C1166.4,649.9,1165.9,649,1165.3,648z"/>
	</g>
	<g class="st2">
		<path class="st29" d="M1045.6,754.7c-0.4-0.3-0.7-0.6-1.1-0.9C1044.8,754.1,1045.2,754.4,1045.6,754.7z"/>
	</g>
	<g class="st2">
		<path class="st29" d="M1043.2,752.8c-0.3-0.3-0.7-0.6-1-0.9C1042.5,752.2,1042.8,752.5,1043.2,752.8z"/>
	</g>
	<g class="st2">
		<path class="st29" d="M1059.8,763.7c-0.5-0.3-1-0.5-1.6-0.8C1058.8,763.1,1059.3,763.4,1059.8,763.7z"/>
	</g>
	<g class="st2">
		<path class="st29" d="M1160.8,641.3c0.8,1,1.5,2.1,2.2,3.1C1162.3,643.4,1161.6,642.3,1160.8,641.3z"/>
	</g>
	<g class="st2">
		<path class="st29" d="M1057,762.2c-0.5-0.3-1-0.6-1.5-0.8C1056,761.7,1056.5,762,1057,762.2z"/>
	</g>
	<g class="st2">
		<path class="st29" d="M1172.4,716.7c-2.2,6.4-5.1,12.4-8.7,17.9C1167.3,729,1170.2,723.1,1172.4,716.7z"/>
	</g>
	<g class="st2">
		<path class="st29" d="M1163.6,734.9c-0.9,1.3-1.8,2.6-2.7,3.9C1161.8,737.5,1162.7,736.2,1163.6,734.9z"/>
	</g>
	<g class="st2">
		<path class="st29" d="M1172.5,716.5c1.6-4.8,2.8-9.9,3.6-15.1l0,0C1175.3,706.7,1174.1,711.7,1172.5,716.5z"/>
	</g>
	<g class="st2">
		<path class="st29" d="M1123,674.6c16.3,6.5,31.6,13,45.6,19.3c2.7,1.2,5.3,2.4,7.9,3.6c1.4-15.2-1.5-29.9-7.7-42.8
			c0-0.1-0.1-0.2-0.1-0.3c-0.5-1-1-2-1.5-3c-0.1-0.2-0.2-0.3-0.3-0.5c-0.5-1-1.1-1.9-1.6-2.8c-0.1-0.2-0.2-0.3-0.3-0.5
			c-0.6-1-1.3-2.1-1.9-3.1c0,0,0,0,0-0.1c-0.7-1.1-1.5-2.1-2.2-3.1l-0.1-0.1c-0.7-0.9-1.4-1.8-2.1-2.7c-0.2-0.3-0.5-0.6-0.7-0.9
			c-0.5-0.6-1-1.2-1.6-1.9c-0.3-0.4-0.6-0.7-1-1.1c-0.5-0.5-1-1.1-1.5-1.6c-0.4-0.4-0.7-0.8-1.1-1.1c-0.5-0.5-1-0.9-1.5-1.4
			c-0.4-0.4-0.8-0.8-1.2-1.1c-0.5-0.4-1-0.9-1.5-1.3c-0.9-0.7-1.7-1.5-2.6-2.2c-0.4-0.3-0.8-0.6-1.2-1c-0.6-0.4-1.1-0.8-1.7-1.3
			c-0.4-0.3-0.8-0.6-1.2-0.8c-0.6-0.4-1.2-0.8-1.8-1.2c-0.4-0.3-0.8-0.5-1.1-0.7c-0.6-0.4-1.3-0.8-1.9-1.2c-0.4-0.2-0.7-0.4-1.1-0.6
			c-0.7-0.4-1.4-0.8-2.1-1.2c-0.3-0.1-0.6-0.3-0.8-0.4c-2.6-1.3-5.2-2.6-8-3.6c-0.2-0.1-0.3-0.1-0.5-0.2c4.2,11.5,6,24.1,4.6,37.1
			C1128.3,659.2,1126.2,667.2,1123,674.6z"/>
	</g>
	<g class="st2">
		<path class="st29" d="M1166.9,698.2c-14.7-5.1-30.9-10.1-48.1-14.9c-0.1,0-0.2,0-0.3-0.1c-7.4,12.7-18,23.1-30.6,30.2
			c6.4,2.5,12.7,5,18.9,7.2c8.4,3.1,16.5,6,24.5,8.8c8,2.7,15.7,5.2,23.2,7.4c2.1,0.6,4.3,1.3,6.3,1.9l0,0c0.9-1.3,1.8-2.6,2.7-3.9
			c0.1-0.1,0.1-0.2,0.2-0.3c3.6-5.5,6.5-11.5,8.7-17.9v-0.1c1.6-4.8,2.8-9.9,3.6-15.1C1173.1,700.4,1170,699.3,1166.9,698.2z"/>
	</g>
	<g class="st2">
		<path class="st29" d="M1153.4,741.4c-7.7-1.6-15.7-3.3-23.9-5.3c-8.2-1.9-16.8-3.9-25.5-6.1c-10.9-2.8-22.2-5.8-33.7-9.2
			c-9.7,2.7-20,3.7-30.6,2.6c-7.2-0.8-14.1-2.5-20.6-5c0.2,0.6,0.5,1.3,0.7,1.9c0.1,0.3,0.2,0.6,0.3,0.9c0.2,0.6,0.5,1.2,0.8,1.8
			c0.1,0.3,0.3,0.6,0.4,1c0.3,0.6,0.5,1.2,0.8,1.8c0.2,0.3,0.3,0.6,0.5,0.9c0.3,0.6,0.6,1.2,0.9,1.7c0.1,0.3,0.3,0.6,0.4,0.8
			c0.3,0.6,0.7,1.2,1,1.8c0,0.1,0.1,0.1,0.1,0.2c0.8,1.4,1.7,2.9,2.7,4.2c0.1,0.1,0.2,0.3,0.3,0.4c0.4,0.6,0.8,1.1,1.2,1.7
			c0.2,0.3,0.4,0.5,0.6,0.8c0.4,0.5,0.8,1,1.1,1.5c0.2,0.3,0.5,0.6,0.7,0.9c0.4,0.5,0.8,1,1.2,1.5c0.2,0.3,0.5,0.6,0.7,0.9
			c0.4,0.5,0.8,1,1.2,1.4c0.2,0.3,0.5,0.5,0.7,0.8c1.5,1.6,3,3.1,4.6,4.6c0.3,0.3,0.6,0.6,0.9,0.8c0.4,0.4,0.8,0.8,1.3,1.1
			c0.3,0.3,0.7,0.6,1,0.9c0.4,0.4,0.8,0.7,1.3,1c0.4,0.3,0.7,0.6,1.1,0.9c0.4,0.3,0.8,0.7,1.3,1c0.4,0.3,0.8,0.6,1.2,0.9
			c0.4,0.3,0.8,0.6,1.2,0.9c0.5,0.4,1.1,0.7,1.6,1.1c0.6,0.4,1.1,0.7,1.7,1.1c0.6,0.4,1.1,0.7,1.7,1.1c0.4,0.2,0.8,0.5,1.2,0.7
			c0.5,0.3,1,0.6,1.5,0.8c0.4,0.2,0.8,0.4,1.2,0.6c0.5,0.3,1,0.5,1.6,0.8c0.4,0.2,0.8,0.4,1.2,0.6c0.6,0.3,1.1,0.5,1.7,0.8
			c0.4,0.2,0.8,0.3,1.2,0.5c0.7,0.3,1.3,0.5,2,0.8c0.3,0.1,0.6,0.2,0.9,0.4c1,0.4,1.9,0.7,2.9,1c0.3,0.1,0.6,0.2,0.9,0.3
			c0.7,0.2,1.4,0.5,2.2,0.7c0.4,0.1,0.8,0.2,1.2,0.3c0.6,0.2,1.3,0.4,2,0.5c0.4,0.1,0.8,0.2,1.2,0.3c0.7,0.2,1.3,0.3,2,0.4
			c0.4,0.1,0.8,0.2,1.2,0.2c0.7,0.1,1.5,0.3,2.2,0.4c0.3,0.1,0.7,0.1,1,0.2c1.1,0.2,2.2,0.3,3.3,0.4c1.6,0.2,3.2,0.3,4.8,0.4
			c0.5,0,1,0,1.5,0c1.1,0,2.2,0,3.3,0c0.5,0,1.1,0,1.6,0c1.1,0,2.2-0.1,3.4-0.2c0.5,0,0.9-0.1,1.4-0.1c1.6-0.1,3.1-0.3,4.6-0.5
			c0.1,0,0.1,0,0.2,0c1.5-0.2,2.9-0.5,4.3-0.8c0.4-0.1,0.9-0.2,1.3-0.3c1.1-0.2,2.2-0.5,3.2-0.8c0.5-0.1,0.9-0.3,1.4-0.4
			c1.1-0.3,2.3-0.7,3.4-1.1c0.3-0.1,0.7-0.2,1-0.3c1.5-0.5,2.9-1.1,4.4-1.7h0.1c1.4-0.6,2.7-1.2,4.1-1.8c0.3-0.2,0.7-0.3,1-0.5
			c1.1-0.5,2.1-1.1,3.1-1.7c0.3-0.2,0.7-0.4,1-0.6c1.1-0.7,2.2-1.3,3.3-2c0.2-0.1,0.4-0.2,0.6-0.4c2.6-1.7,5.1-3.6,7.5-5.5
			c0.2-0.2,0.5-0.4,0.7-0.6c1-0.8,1.9-1.6,2.8-2.5c0.2-0.2,0.5-0.4,0.7-0.7c1-1,2-2,3-3c0.1-0.1,0.2-0.2,0.2-0.3
			c1.1-1.2,2.2-2.4,3.2-3.6l0,0C1156.5,742.1,1154.9,741.8,1153.4,741.4z"/>
	</g>
	<g class="st2">
		<path class="st29" d="M1176.4,698.7c0-0.4,0.1-0.8,0.1-1.2l0,0C1176.5,697.9,1176.5,698.3,1176.4,698.7z"/>
	</g>
	<g class="st2">
		<path class="st29" d="M1176,701.5c0.1-0.9,0.3-1.8,0.4-2.8C1176.3,699.6,1176.2,700.5,1176,701.5L1176,701.5z"/>
	</g>
	<g class="st2">
		<path class="st29" d="M1160.8,738.8c-0.9,1.2-1.8,2.4-2.8,3.6C1159,741.2,1159.9,740,1160.8,738.8z"/>
	</g>
	<g class="st2">
		<path class="st28" d="M1154.5,736.9c-7.5-2.2-15.2-4.8-23.2-7.4c-7.9-2.7-16.1-5.6-24.5-8.8c-6.2-2.3-12.5-4.7-18.9-7.2
			c-5.6,3.1-11.5,5.6-17.7,7.4c11.5,3.3,22.8,6.4,33.7,9.2c8.7,2.2,17.2,4.3,25.5,6.1c8.2,1.9,16.2,3.6,23.9,5.3
			c1.6,0.3,3.1,0.6,4.7,1l0,0c1-1.2,1.9-2.4,2.8-3.6l0,0C1158.8,738.2,1156.6,737.6,1154.5,736.9z"/>
	</g>
	<g class="st2">
		<path class="st29" d="M1168.6,693.9c-14-6.2-29.3-12.8-45.6-19.3c-1.3,3-2.8,5.9-4.4,8.6c0.1,0,0.2,0,0.3,0.1
			c17.2,4.8,33.3,9.7,48.1,14.9c3.1,1.1,6.1,2.2,9.1,3.3c0.1-0.9,0.3-1.8,0.4-2.8c0-0.4,0.1-0.8,0.1-1.2
			C1173.9,696.3,1171.3,695.1,1168.6,693.9z"/>
	</g>
</g>
<g class="st1">
	<g class="st2">
		<path class="st3" d="M1291.2,765.7c1.2-2.1,1.9-4.6,1.8-7.2c-0.1-7.6-6.3-13.7-13.9-13.6c-1.5,0-3,0.3-4.3,0.8c0-0.2,0-0.3,0-0.5
			c-1-11.1-10.6-19.2-21.5-18.2c-9.2,0.9-16.4,8.1-17.7,17.1c-2.3-5.8-8.1-9.7-14.5-9c-6.8,0.6-12.1,6.1-12.8,12.8
			c-6.2,0.6-11,6-10.8,12.5c0,1.9,0.5,3.7,1.3,5.3L1291.2,765.7L1291.2,765.7z"/>
	</g>
</g>
<g class="st1">
	<g class="st2">
		<path class="st3" d="M525.2,173.3c1.2-2.1,1.9-4.6,1.8-7.2c-0.1-7.6-6.3-13.7-13.9-13.6c-1.5,0-3,0.3-4.3,0.8c0-0.2,0-0.3,0-0.5
			c-1-11.1-10.6-19.2-21.5-18.2c-9.2,0.9-16.4,8.1-17.7,17.1c-2.3-5.8-8.1-9.7-14.5-9c-6.8,0.6-12.1,6.1-12.8,12.8
			c-6.2,0.6-11,6-10.8,12.5c0,1.9,0.5,3.7,1.3,5.3L525.2,173.3L525.2,173.3z"/>
	</g>
</g>
<g class="st1">
	<g class="st2">
		<path class="st3" d="M1092.7,198.4c1.2-2.1,1.9-4.6,1.8-7.2c-0.1-7.6-6.3-13.7-13.9-13.6c-1.5,0-3,0.3-4.3,0.8c0-0.2,0-0.3,0-0.5
			c-1-11.1-10.6-19.2-21.5-18.2c-9.2,0.9-16.4,8.1-17.7,17.1c-2.3-5.8-8.1-9.7-14.5-9c-6.8,0.6-12.1,6.1-12.8,12.8
			c-6.2,0.6-11,6-10.8,12.5c0,1.9,0.5,3.7,1.3,5.3L1092.7,198.4L1092.7,198.4z"/>
	</g>
</g>
<g class="st1">
	<ellipse class="st16" cx="291.7" cy="697" rx="34.4" ry="34.6"/>
</g>
<g class="st1">
	<path class="st16" d="M291.7,793.3c-52.8,0-95.8-43.2-95.8-96.2c0-53.1,43-96.2,95.8-96.2s95.8,43.2,95.8,96.2
		S344.6,793.3,291.7,793.3z M291.7,608.8c-48.4,0-87.8,39.6-87.8,88.2c0,48.7,39.4,88.2,87.8,88.2s87.8-39.6,87.8-88.2
		C379.5,648.4,340.1,608.8,291.7,608.8z"/>
</g>
<g class="st1">
	<ellipse class="st30" cx="291.7" cy="697" rx="12.5" ry="12.6"/>
</g>
<g class="st1">
	<g class="st2">
		<path class="st11" d="M291.7,771.2c-40.7,0-73.8-33.3-73.8-74.2s33.1-74.2,73.8-74.2s73.8,33.3,73.8,74.2
			C365.6,737.9,332.4,771.2,291.7,771.2z M291.7,649.8c-25.9,0-47,21.2-47,47.3s21.1,47.2,47,47.2s47-21.2,47-47.2
			C338.8,671,317.7,649.8,291.7,649.8z"/>
	</g>
</g>
<g class="st1">
	<g class="st2">
		<path class="st11" d="M291.7,771.2c-40.7,0-73.8-33.3-73.8-74.2s33.1-74.2,73.8-74.2s73.8,33.3,73.8,74.2
			C365.6,737.9,332.4,771.2,291.7,771.2z M291.7,649.8c-25.9,0-47,21.2-47,47.3s21.1,47.2,47,47.2s47-21.2,47-47.2
			C338.8,671,317.7,649.8,291.7,649.8z"/>
	</g>
</g>
<g class="st1">
	<g class="st2">
		<path class="st3" d="M289.9,797.5c1.2-2.1,1.9-4.6,1.8-7.2c-0.1-7.6-6.3-13.7-13.9-13.6c-1.5,0-3,0.3-4.3,0.8c0-0.2,0-0.3,0-0.5
			c-1-11.1-10.6-19.2-21.5-18.2c-9.2,0.9-16.4,8.1-17.7,17.1c-2.3-5.8-8.1-9.7-14.5-9c-6.8,0.6-12.1,6.1-12.8,12.8
			c-6.2,0.6-11,6-10.8,12.5c0,1.9,0.5,3.7,1.3,5.3L289.9,797.5L289.9,797.5z"/>
	</g>
</g>
<g class="st31">
	<ellipse class="st11" cx="217.9" cy="452.8" rx="15.1" ry="15.2"/>
</g>
<g class="st31">
	<ellipse class="st32" cx="233" cy="311.3" rx="15.1" ry="15.2"/>
</g>
<g class="st31">
	<ellipse class="st32" cx="129" cy="608.2" rx="15.1" ry="15.2"/>
</g>
<g class="st31">
	<ellipse class="st11" cx="85" cy="205.4" rx="15.1" ry="15.2"/>
</g>
<g class="st31">
	<ellipse class="st32" cx="643.9" cy="92.1" rx="15.1" ry="15.2"/>
</g>
<g class="st31">
	<ellipse class="st11" cx="794.5" cy="56.3" rx="15.1" ry="15.2"/>
</g>
<g class="st31">
	<ellipse class="st32" cx="840" cy="179" rx="15.1" ry="15.2"/>
</g>
<g class="st31">
	<ellipse class="st32" cx="1105.1" cy="289.7" rx="15.1" ry="15.2"/>
</g>
<g class="st31">
	<ellipse class="st11" cx="1255" cy="232.9" rx="15.1" ry="15.2"/>
</g>
<g class="st31">
	<ellipse class="st32" cx="1270.1" cy="419.8" rx="15.1" ry="15.2"/>
</g>
<g class="st31">
	<ellipse class="st11" cx="1123" cy="478.4" rx="15.1" ry="15.2"/>
</g>
<g class="st31">
	<ellipse class="st32" cx="1227" cy="600.6" rx="15.1" ry="15.2"/>
</g>
<g class="st31">
	<line class="st26" x1="1227" y1="242.5" x2="1132" y2="279"/>
	<path class="st32" d="M1132,281.5c-1,0-2-0.6-2.3-1.6c-0.5-1.3,0.1-2.7,1.4-3.2l95-36.5c1.3-0.5,2.7,0.1,3.2,1.4
		c0.5,1.3-0.1,2.7-1.4,3.2l-95,36.5C1132.6,281.5,1132.3,281.5,1132,281.5z"/>
</g>
<g class="st31">
	<line class="st26" x1="763.3" y1="59.4" x2="668.4" y2="84.1"/>
	<path class="st32" d="M668.4,86.6c-1.1,0-2.1-0.7-2.4-1.9c-0.3-1.3,0.5-2.7,1.8-3l95-24.7c1.3-0.3,2.7,0.5,3,1.8s-0.5,2.7-1.8,3
		l-95,24.7C668.8,86.6,668.6,86.6,668.4,86.6z"/>
</g>
<g class="st31">
	<line class="st26" x1="805" y1="84.1" x2="829" y2="155.7"/>
	<path class="st32" d="M829,158.2c-1,0-2-0.7-2.4-1.7l-24-71.6c-0.4-1.3,0.3-2.7,1.6-3.2c1.3-0.4,2.7,0.3,3.2,1.6l24,71.6
		c0.4,1.3-0.3,2.7-1.6,3.2C829.5,158.2,829.3,158.2,829,158.2z"/>
</g>
<g class="st31">
	<line class="st26" x1="88.1" y1="236.8" x2="124" y2="578"/>
	<path class="st32" d="M124,580.5c-1.3,0-2.3-1-2.5-2.2L85.6,237.1c-0.1-1.4,0.9-2.6,2.2-2.7c1.4-0.1,2.6,0.9,2.7,2.2l35.9,341.1
		c0.1,1.4-0.9,2.6-2.2,2.7C124.2,580.4,124.1,580.5,124,580.5z"/>
</g>
<g class="st31">
	<line class="st26" x1="106" y1="224.8" x2="209" y2="299.1"/>
	<path class="st32" d="M209,301.6c-0.5,0-1-0.2-1.5-0.5l-103-74.3c-1.1-0.8-1.4-2.4-0.6-3.5s2.4-1.4,3.5-0.6l103,74.3
		c1.1,0.8,1.4,2.4,0.6,3.5C210.5,301.3,209.8,301.6,209,301.6z"/>
</g>
<g class="st31">
	<line class="st26" x1="230.5" y1="337.8" x2="221" y2="423.7"/>
	<path class="st32" d="M221,426.2c-0.1,0-0.2,0-0.3,0c-1.4-0.2-2.4-1.4-2.2-2.8l9.5-85.9c0.2-1.4,1.4-2.4,2.8-2.2
		c1.4,0.2,2.4,1.4,2.2,2.8l-9.5,85.9C223.3,425.3,222.3,426.2,221,426.2z"/>
</g>
<g class="st31">
	<line class="st26" x1="1260" y1="266" x2="1270.1" y2="389.9"/>
	<path class="st32" d="M1270.1,392.4c-1.3,0-2.4-1-2.5-2.3l-10.1-123.9c-0.1-1.4,0.9-2.6,2.3-2.7s2.6,0.9,2.7,2.3l10.1,123.9
		c0.1,1.4-0.9,2.6-2.3,2.7C1270.2,392.4,1270.2,392.4,1270.1,392.4z"/>
</g>
<g class="st31">
	<line class="st26" x1="1267.6" y1="448.9" x2="1234.5" y2="577.8"/>
	<path class="st32" d="M1234.5,580.3c-0.2,0-0.4,0-0.6-0.1c-1.3-0.3-2.1-1.7-1.8-3l33.1-129c0.3-1.3,1.7-2.1,3-1.8
		c1.3,0.3,2.1,1.7,1.8,3l-33.1,129C1236.6,579.6,1235.6,580.3,1234.5,580.3z"/>
</g>
<g class="st31">
	<line class="st26" x1="1109.8" y1="319.7" x2="1121.3" y2="448.9"/>
	<path class="st32" d="M1121.3,451.4c-1.3,0-2.4-1-2.5-2.3l-11.5-129.2c-0.1-1.4,0.9-2.6,2.3-2.7s2.6,0.9,2.7,2.3l11.5,129.2
		c0.1,1.4-0.9,2.6-2.3,2.7C1121.4,451.4,1121.3,451.4,1121.3,451.4z"/>
</g>
</svg>
